<?xml version="1.0" encoding="UTF-8" ?>
<svg version="1.1" width="260" height="140" xmlns="http://www.w3.org/2000/svg" shape-rendering="crispEdges">
<rect x="150" y="0" width="60" height="10" fill="#8159EC" />
<rect x="130" y="10" width="40" height="10" fill="#8159EC" />
<rect x="190" y="10" width="40" height="10" fill="#8159EC" />
<rect x="40" y="20" width="40" height="10" fill="#8159EC" />
<rect x="120" y="20" width="30" height="10" fill="#8159EC" />
<rect x="210" y="20" width="30" height="10" fill="#8159EC" />
<rect x="20" y="30" width="30" height="10" fill="#8159EC" />
<rect x="70" y="30" width="30" height="10" fill="#8159EC" />
<rect x="110" y="30" width="30" height="20" fill="#8159EC" />
<rect x="220" y="30" width="30" height="20" fill="#8159EC" />
<rect x="10" y="40" width="30" height="10" fill="#8159EC" />
<rect x="80" y="40" width="30" height="10" fill="#8159EC" />
<rect x="180" y="40" width="20" height="60" fill="#8159EC" />
<rect x="0" y="50" width="30" height="40" fill="#8159EC" />
<rect x="60" y="50" width="10" height="40" fill="#8159EC" />
<rect x="90" y="50" width="40" height="50" fill="#8159EC" />
<rect x="170" y="50" width="10" height="40" fill="#8159EC" />
<rect x="200" y="50" width="10" height="40" fill="#8159EC" />
<rect x="230" y="50" width="30" height="40" fill="#8159EC" />
<rect x="50" y="60" width="10" height="20" fill="#8159EC" />
<rect x="70" y="60" width="10" height="20" fill="#8159EC" />
<rect x="10" y="90" width="30" height="10" fill="#8159EC" />
<rect x="80" y="90" width="10" height="20" fill="#8159EC" />
<rect x="130" y="90" width="10" height="40" fill="#8159EC" />
<rect x="220" y="90" width="30" height="20" fill="#8159EC" />
<rect x="20" y="100" width="30" height="10" fill="#8159EC" />
<rect x="70" y="100" width="10" height="20" fill="#8159EC" />
<rect x="90" y="100" width="10" height="10" fill="#8159EC" />
<rect x="110" y="100" width="20" height="10" fill="#8159EC" />
<rect x="40" y="110" width="30" height="10" fill="#8159EC" />
<rect x="120" y="110" width="10" height="10" fill="#8159EC" />
<rect x="140" y="110" width="10" height="20" fill="#8159EC" />
<rect x="210" y="110" width="30" height="10" fill="#8159EC" />
<rect x="150" y="120" width="20" height="20" fill="#8159EC" />
<rect x="190" y="120" width="40" height="10" fill="#8159EC" />
<rect x="170" y="130" width="40" height="10" fill="#8159EC" />
</svg>